<?xml version="1.0" standalone="no"?>
<svg xmlns:xlink="http://www.w3.org/1999/xlink" id="wave" style="transform:rotate(180deg); transition: 0.3s" viewBox="0 0 1440 250" version="1.1" xmlns="http://www.w3.org/2000/svg"><defs><linearGradient id="sw-gradient-0" x1="0" x2="0" y1="1" y2="0"><stop stop-color="rgba(42, 107, 155, 1)" offset="0%"/><stop stop-color="rgba(87, 199, 133, 1)" offset="100%"/></linearGradient></defs><path style="transform:translate(0, 0px); opacity:1" fill="url(#sw-gradient-0)" d="M0,75L26.7,75C53.3,75,107,75,160,91.7C213.3,108,267,142,320,129.2C373.3,117,427,58,480,50C533.3,42,587,83,640,91.7C693.3,100,747,75,800,58.3C853.3,42,907,33,960,54.2C1013.3,75,1067,125,1120,137.5C1173.3,150,1227,125,1280,116.7C1333.3,108,1387,117,1440,116.7C1493.3,117,1547,108,1600,87.5C1653.3,67,1707,33,1760,41.7C1813.3,50,1867,100,1920,116.7C1973.3,133,2027,117,2080,112.5C2133.3,108,2187,117,2240,108.3C2293.3,100,2347,75,2400,75C2453.3,75,2507,100,2560,104.2C2613.3,108,2667,92,2720,104.2C2773.3,117,2827,158,2880,150C2933.3,142,2987,83,3040,87.5C3093.3,92,3147,158,3200,191.7C3253.3,225,3307,225,3360,212.5C3413.3,200,3467,175,3520,175C3573.3,175,3627,200,3680,183.3C3733.3,167,3787,108,3813,79.2L3840,50L3840,250L3813.3,250C3786.7,250,3733,250,3680,250C3626.7,250,3573,250,3520,250C3466.7,250,3413,250,3360,250C3306.7,250,3253,250,3200,250C3146.7,250,3093,250,3040,250C2986.7,250,2933,250,2880,250C2826.7,250,2773,250,2720,250C2666.7,250,2613,250,2560,250C2506.7,250,2453,250,2400,250C2346.7,250,2293,250,2240,250C2186.7,250,2133,250,2080,250C2026.7,250,1973,250,1920,250C1866.7,250,1813,250,1760,250C1706.7,250,1653,250,1600,250C1546.7,250,1493,250,1440,250C1386.7,250,1333,250,1280,250C1226.7,250,1173,250,1120,250C1066.7,250,1013,250,960,250C906.7,250,853,250,800,250C746.7,250,693,250,640,250C586.7,250,533,250,480,250C426.7,250,373,250,320,250C266.7,250,213,250,160,250C106.7,250,53,250,27,250L0,250Z"/></svg>